<?xml version="1.0" encoding="utf-8"?>
<!-- Generator: Adobe Illustrator 22.1.0, SVG Export Plug-In . SVG Version: 6.00 Build 0)  -->
<svg version="1.1" id="图层_1" xmlns="http://www.w3.org/2000/svg" xmlns:xlink="http://www.w3.org/1999/xlink" x="0px" y="0px"
	 viewBox="0 0 128 128" style="enable-background:new 0 0 128 128;" xml:space="preserve">
<style type="text/css">
	.st0{display:none;fill:#FFFFFF;}
	.st1{display:none;fill:#EDF4F7;}
	.st2{fill:#FCFCFC;}
	.st3{fill:#E1E0E2;}
	.st4{fill:#F6F7F8;}
	.st5{fill:#E9EAEC;}
	.st6{fill:#E5E6E8;}
	.st7{fill:#EEEFF2;}
	.st8{fill:#2986F7;}
	.st9{fill:#DD1C25;}
	.st10{fill:#C11D2B;}
	.st11{fill:#CE1C27;}
	.st12{fill:#2579DF;}
	.st13{fill:#2881ED;}
	.st14{fill:#CD1C28;}
	.st15{fill:#277FEA;}
	.st16{fill:#226FCC;}
	.st17{fill:#FDFDFD;}
	.st18{fill:#267DE7;}
	.st19{fill:#3368A7;}
	.st20{fill:#FCFAFB;}
	.st21{fill:#FCFAFA;}
	.st22{fill:#FAF7F7;}
	.st23{fill:#962D36;}
	.st24{fill:#85363D;}
	.st25{fill:#912730;}
	.st26{fill:#DA1F28;}
	.st27{fill:#8C2830;}
	.st28{fill:#2373D3;}
	.st29{fill:#3A5C83;}
	.st30{fill:#4A6D98;}
	.st31{fill:#316AAC;}
	.st32{fill:#3B689E;}
	.st33{fill:#415E83;}
	.st34{fill:#416086;}
	.st35{fill:#3E6BA1;}
	.st36{fill:#2578DB;}
	.st37{fill:#446083;}
	.st38{fill:#3B70AD;}
	.st39{fill:#9A333B;}
	.st40{fill:#D92831;}
	.st41{fill:#924248;}
	.st42{fill:#C4313B;}
	.st43{fill:#D6D6D6;}
	.st44{fill:#FFFFFF;}
	.st45{fill:#BABBC6;}
</style>
<path class="st0" d="M64,126c34.2,0,62-27.8,62-62S98.2,2,64,2S2,29.8,2,64S29.8,126,64,126z"/>
<g>
	<path class="st1" d="M117.9,63.6c0,18.7,0,37.4,0,55.9c0,1.5-0.4,1.6-1.6,1.6c-37.4,0-75,0-112.4,0c-1.5,0-1.6-0.4-1.6-1.6
		c0-37.4,0-75,0-112.4C2,5.8,2.4,5.5,3.8,5.5c37.4,0,75,0,112.4,0c1.3,0,1.6,0.4,1.6,1.6C117.9,26,117.9,44.7,117.9,63.6z"/>
	<path class="st2" d="M22,24.4c3.3-3.3,6.4-6.4,9.6-9.6c0.5-0.5,0.9-0.5,1.6-0.2c8.4,4.9,16.7,4.7,25.1,0.4c0.7-0.4,1.3-1.1,2.2-0.4
		c8.2,5.3,16.7,4.7,25.1,0.5c1.8-0.9,2.7-0.7,4,0.7c3.5,3.6,7.1,7.1,10.7,10.5c-0.5,1.8,0,3.1,1.1,4.7c1.1,1.5-0.2,2.9-1.1,4.2
		c-3.6,4.7-5.3,10.2-4.7,16c0.4,4.9,2.5,9.4,5.1,13.6c0.7,2.9,2,5.6,2,8.7c-0.2,0.7-0.5,1.1-1.3,1.1c-0.7-0.4-0.9-0.9-1.1-1.6
		c-0.5-2.9-1.8-5.6-2.7-8.4c-1.5-3.5-3.3-6.5-4.4-10.2c-0.4-1.1-0.5-2.4-0.4-3.6c0.2-1.5-0.4-2.5-1.6-3.1c-0.7-1.6,1.1-1.5,1.5-2.2
		c1.1-2.2,0.9-4.7,2.2-6.7c0.7-1.6,1.5-3.5,2.5-4.9c0.9-1.3,0.7-2.2-0.4-3.3c-1.5-1.5-2.9-3.1-4.5-4.5c-1.6-1.6-3.3-3.1-4.7-4.7
		c-1.1-1.3-2.4-1.5-4-0.7c-7.6,3.5-15.3,4-23.1,0.4c-1.3-0.5-2.4-0.4-3.6,0.2c-7.4,3.1-14.9,3.6-22.3-0.2c-1.5-0.7-2.5-0.5-3.5,0.5
		c-2,2.2-4.4,3.8-6.5,6c-1.5,0.9-2.4,2-3.8,2.9c-0.9,0.7-1.3,1.6-0.5,2.5c1.1,1.5,1.6,3.3,2.4,4.9c0.4,0.5,0.5,1.3,0.5,2
		c-0.4,1.5-1.3,0.9-1.6,0.2c-1.3-2.7-2.9-5.1-4.9-7.4c-0.7-0.9-0.4-2,0.4-2.7C18.9,28.3,20.2,26.2,22,24.4z"/>
	<path class="st3" d="M103,92.1c-2,4.2-5.4,6.9-9.4,8.9c-5.6,2.9-11.8,3.5-17.8,4.5c-2,0.4-4,0.5-6,0.9c-4.2,0.7-8,2.2-10.5,6
		c-4.4-5.1-10.2-6.2-16.2-6.9c-5.6-0.7-11.4-1.1-16.5-3.8c-2.7-1.5-5.4-3.3-7.3-5.8c0-1.8,0.5-3.3,2.5-3.8c1.5,0.7,2.2,2.4,3.6,3.5
		c4.7,3.6,10,4.7,15.8,5.3c4.2,0.4,8.4,0.5,12.4,2.4c1.8,0.7,3.3,2,4.9,3.1c0.7,0.5,1.3,0.9,2,0.2c4.7-4.9,10.9-5.3,16.9-6.2
		c2.9-0.4,6-0.7,8.9-1.6c4.7-1.5,8.5-4,11.4-7.8c0.5-0.7,0.9-1.5,1.8-1.6h0.2C100.5,90.5,102.1,90.8,103,92.1z"/>
	<path class="st4" d="M93.2,46.1c-0.4,1.1-2.2,0-2.2,1.5c-1.1,1.1-2.5,0.7-4,0.7c-18.5,0-37.2,0-55.8,0c-0.7,0-1.5,0-2,0
		c-3.3,0-3.6,0.4-4.2,3.6c-0.2,0.7-0.2,1.5-0.4,2C24,58.7,22,63,20,67.2c-0.7,1.6-0.9,3.5-2,4.9c-1.8-0.2-1.3-1.5-0.9-2.4
		c0.9-3.6,2.4-7.1,3.6-10.5c0.9-2.7,0.9-5.4,1.5-8.2c0.2-1.5-0.9-1.1-1.5-1.6c0.4-5.4-2.4-10-4.9-14.5c-1.6-3.1-1.8-3.1,0.7-5.4
		c1.8-1.8,3.5-3.8,5.4-5.1c-1.1,2.2-2.2,4.2-4,5.8c-1.3,1.3-1.3,2.2,0,3.5c1.8,1.8,3.1,4,4,6.4c0.2,0.5,0.5,1.6,1.1,0
		c1.3,0.4,1.6,1.6,1.8,2.7c0.4,2.2,1.5,2.7,3.5,2.7c1.6-0.2,3.3,0,4.9,0c18.7,0,37.4,0,56.1,0C90.7,45.4,92.1,45.2,93.2,46.1z"/>
	<path class="st5" d="M103,92.1c-0.9-0.4-1.8-1.5-2.9-0.2c-0.4-0.9,0.7-1.8-0.4-2.5c-0.5-0.5-0.4-1.3,0-2c2-4.4,2.4-9.1,2.4-13.8
		c0-2.2-0.9-4.2-1.5-6.4c-0.2-0.7-0.5-1.6-0.4-2.4c-1.3-1.6-1.6-3.6-2.2-5.6c-0.5-1.6,0-3.1,1.8-3.6c2.4,4.9,4.7,10,6.4,15.3
		C108.5,78.3,106.8,85.4,103,92.1z"/>
	<path class="st4" d="M99.9,55.4c-2.7,2.5-0.4,5.1,0,7.6c0,0.5,0.5,1.1,0.5,1.6c-0.7-0.4-1.1-0.9-1.5-1.5c-5.8-10-5.4-20.2,1.6-29.4
		c0.9-1.1,1.3-2.2,0.2-3.3c-1.3-1.5-2.7-2.7-0.4-4.4c1.3,1.3,2.5,2.5,4,3.6c1.3,1.1,1.1,1.8,0.2,2.9c-4,4.7-6,10.2-6,16.3
		C98.5,51.4,99.4,53.4,99.9,55.4z"/>
	<path class="st6" d="M21.6,92.1c-1.3,0.9-1.6,2.5-2.4,3.8c-4-3.8-5.1-8.9-6.2-14c-0.7-3.5-0.9-6.9,0.2-10.2
		c0.5,0.2,0.9,0.7,1.5,1.1c3.1,1.8,3.3,2.2,2.5,5.8c0,0.5,0.4-0.2,0.4,0c0.5,0.4,0.7,0.9,0.7,1.5c0.2,2.4,1.3,4.7,1.6,7.1
		c-0.4,1.1,0.2,2,0.7,3.1C21.1,90.7,22,91.2,21.6,92.1z"/>
	<path class="st7" d="M17.5,78.5c0,0.4-0.2,0.7-0.2,1.1c-0.2,0-0.2,0-0.4,0c0-0.5,0-1.1,0-1.6c0.4-2.4,0-4.2-2.7-4.7
		c-0.9-0.2-0.9-0.9-0.9-1.6c0-1.6,0.7-2.9,1.5-4.4c2.7-5.6,5.1-11.4,6-17.8c0.7,0.4,1.3-1.1,2-0.4c0.5,0.7,0,1.5,0,2.2
		c0.2,6.7-3.5,12.5-5.1,18.9c-0.2,0.9-0.4,1.5,0.4,2C18.5,74.3,18.4,76.5,17.5,78.5z"/>
	<path class="st8" d="M24,54.5c-0.2-1.6,0.5-3.1,0.5-4.7c0-2,1.6-2.2,3.3-2.2c20.2,0,40.3,0,60.5,0c0.9,0,1.8,0,2.7-0.2
		c1.8,0,2.4,0.7,2.2,2.4c-0.2,1.5,0,3.1,0.4,4.5c-0.2,3.6-1.1,4.4-4.7,3.1c-1.6-0.5-3.1-0.7-4.7,0.2c-1.5,0.7-3.1-0.4-4.5,0.5
		c-4.7-0.9-9.4-0.9-13.8,1.5c-2.4-0.2-4.4,1.6-6.7,1.1c-1.8-0.4-3.5,0.5-5.3,0.2c-0.5-0.5-0.4-1.6-1.3-2c-4-1.8-8.2-1.3-12.4-0.9
		c-0.9,0-1.8,0.5-2.7,0.5c-3.5,0.2-6.7-0.2-10.2,0.4c-1.6,0.2-2.5-0.5-2.9-2.2C24.5,56.1,24.5,55.2,24,54.5z"/>
	<path class="st9" d="M24.4,27.6c2.5-2.4,5.1-4.7,7.6-7.1c0.7-0.7,1.3-0.7,2.2-0.2c7.6,4.4,15.3,3.8,23.1,0.5
		c1.1-0.5,2.2-0.7,3.3-0.2c7.8,3.6,15.6,3.1,23.3-0.4c1.6-0.7,2.5-0.5,3.8,0.7c1.6,1.8,3.6,3.6,5.3,5.4c0.5,1.1,1.8,1.8,2.5,3.1
		c0.7,1.1,1.1,2.2,0.5,3.5c-0.7,1.3-2,1.1-3.1,1.1c-1.3-0.2-2.5-0.4-3.8,0.5c-1.6,1.1-2.7,0.7-3.5-1.1c-0.2-0.4-0.5-0.5-0.7-0.9
		c-0.2-0.2-0.5-0.5-0.7-0.7c-1.5-1.8-3.5-2-5.6-2.4c-1.8-0.2-2.5,0.5-2.5,2.4c0,1.1,0.2,2.4-0.4,3.5c-1.1,1.3-2.4,0.7-3.5,0
		c-1.5-0.9-1.1-2.9-2.2-4.2c-2.5-2.4-3.3-2.2-4.4,1.1c-1.1,3.1-2.2,6.2-3.5,9.3c-0.5,0.9-1.5,1.6-2.5,2c-1.1,0-2,0-2.4-1.3
		c1.3-3.1,1.8-6.5,2.7-9.6c0.2-0.7,0.4-1.6,0-2.5c-1.3-0.7-1.5,0.4-1.8,1.1c-0.4,1.1-0.4,2.2-0.7,3.1c-0.4,0.9-0.4,2-1.5,2
		c-1.1,0-1.3-1.1-1.5-2c-0.2-0.7-0.4-1.5-0.5-2.2c-0.4-0.9-0.2-2.2-1.5-2.4c-1.5,0-1.5,1.5-1.8,2.4c-0.4,1.1-0.5,2.2-0.9,3.1
		c-0.4,0.7-0.5,1.6-1.5,1.6c-1.1,0-1.3-1.1-1.5-1.8c-0.4-1.3-0.4-2.7-0.9-4c-0.2-0.5-0.4-1.1-1.1-1.1c-0.7,0.2-0.5,0.9-0.4,1.5
		c0.4,1.8,0.9,3.8,1.3,5.6c0.2,0.9,0.5,1.8,0,2.7c-1.6,0.9-2.7,0.2-3.5-1.3c-0.2-0.2-0.4-0.5-0.7-0.7c-0.9-1.1-2-2.2-3.3-2.7
		c-0.7-0.4-1.5-0.7-1.6-1.8c0.4-1.6,1.5-1.8,2.9-1.6c0.7,0.2,2,0.5,1.1-1.1c-3.6-1.8-6-0.5-7.4,3.6c-0.9,0.9-2,0.4-3.1,0.4
		c-2.2-0.2-4.4,0.2-6.4-0.2c-2.7-0.5-3.3-1.5-1.6-3.8C22.9,29.1,23.6,28.3,24.4,27.6z"/>
	<path class="st10" d="M57.2,42c0.5,0.7,1.5,0.7,2.4,0.9c5.1,0.2,10.2-0.4,15.1,0c2,0.2,3.8-0.4,5.3-1.6c0.7-0.7,1.6-1.3,2.7-1.1
		c3.6,0.5,7.1-1.3,10.7-1.5c0.5,0,1.1-0.4,1.8,0c-0.9,2.4-1.5,4.7-1.8,7.3c-0.9,0-1.6,0.2-2.5,0.2c-21.1,0-42.1,0-63.4,0
		c-2,0-3.1-0.4-3.3-2.7c0-1.3-0.4-2.5-1.1-3.6c-0.2-0.5-0.4-1.1-0.4-1.6c0.4-0.2,0.7-0.2,1.1,0c2.9,1.8,6.2,2,9.4,1.6
		c0.9,0,1.3,0.7,2,1.1c1.3,0.5,2.7,0.4,4,0.2c1.3-0.2,2-0.9,2.5-2c0.2-0.5,0.2-1.5,0.7-1.8c0.5,1.5,1.5,2.2,3.1,1.8
		c1.3,0.4,1.3,2,2.4,2.5c2.5,2,4.7,0.7,6.9-0.5c0.5-0.2,1.1-0.2,1.6,0C56.9,41.4,57.1,41.8,57.2,42z"/>
	<path class="st11" d="M95.2,38.9c-4,0.9-8,2.5-12.2,1.8c-0.9-0.2-1.6,0.2-2.4,0.9c-2,1.8-4.2,2.2-6.9,2c-3.5-0.4-6.9,0-10.2,0.4
		c-1.5,0.2-2.7-0.4-4-0.9c0.5-0.7,1.6-0.9,2-2c0.7-0.2,1.3,0,2,0.2c0.5,0,0.9,0,1.1-0.5c1.1-2,2.7-2.2,4.7-1.8
		c1.3,0.4,1.5,1.5,2.2,2.2c0.5,0.4,1.1,0.5,1.6,0.2c0.5-0.7,0-1.5-0.4-2c-0.2-0.2-0.2-0.4-0.2-0.5c0-1.3-1.3-2.5-0.4-3.8
		c1.1,0.4,2,1.3,3.3,0.5c0.9,0.7,0.5,1.8,0.7,2.7c0,1.1-0.2,2.2,0.7,3.1c1.5,0.9,1.8-0.2,1.8-1.3c0-1.6,0.7-2.5,2.4-2.7
		c2.5-0.4,4-1.5,3.8-4.2c0-0.4,0.2-0.7,0.5-0.9c2,1.8,2.4,2,5.1,1.1c1.3-0.4,2.2,0.4,3.5,0.4c2,0,2.5-0.9,2-2.7
		c-0.5-1.6-2.2-2.5-2.5-4.2c1.6,1.6,3.3,3.3,4.9,4.7c1.1,0.9,0.9,1.8,0.2,2.9C96.8,35.4,96.1,37.2,95.2,38.9z"/>
	<path class="st12" d="M97.9,64.3c1.6,3.3,2.4,6.7,3.3,10.2c1.1,2,1.1,4,0,6c-4,1.6-8.2,0.4-12.2,0.7c-0.7,0-1.5,0-1.8-0.7
		c-0.5-1.1,0.2-2.2-0.2-3.1c0-0.5,0.2-0.9,0.4-1.5c1.1-2.4,0.5-4.9,0.5-7.3c1.1-0.9,2.2-0.7,3.1-0.2c1.3,0.7,2.5,0.5,3.8,0.2
		c1.3-0.2,1.8-0.9,2-2.2C97,65.8,96.7,64.7,97.9,64.3z"/>
	<path class="st13" d="M97.9,64.3c-0.2,0.4-0.4,0.7-0.4,1.1c-0.4,4-3.1,5.6-6.5,3.6c-0.9-0.5-1.8,0.2-2.5-0.5
		c-0.4,0-0.7-0.2-0.9-0.4c-1.3-4.2-4.4-7.1-7.4-10c0-0.2,0.2-0.4,0.2-0.4c3.1,0.4,5.8-2,9.1-0.7c3.3,1.3,3.3,1.1,4-2.2
		c0-0.2,0.4-0.2,0.5-0.4C95,57.8,96.5,61,97.9,64.3z"/>
	<path class="st4" d="M100.8,80.5c0.9-2,0.2-4,0.4-6c0.4-0.2,0.7-0.5,0.9-0.9c0.9,2.4,0.7,4.9,0.2,7.4c-0.5,2.9-1.6,5.6-2.5,8.4
		c-2.7,2.9-5.1,6-8.7,8c-4.5,2.2-9.3,2.9-14.2,3.6c-4,0.5-8,0.7-11.8,2.7c-1.6,0.9-3.1,2-4.4,3.3c-0.7,0.7-1.3,1.1-2.2,0.2
		c-4.7-4.5-10.9-5.3-17.1-5.6c-6.2-0.4-12-1.8-16.9-5.8c-1.3-0.9-2-2.2-2.9-3.5c-0.7-1.5-2.7-2.5-2-4.5c1.1,0.2,1.5,1.3,1.8,2
		c3.5,5.8,8.7,8.4,15.1,9.4c4.4,0.7,8.9,0.9,13.3,1.8c2.7,0.5,5.3,1.8,7.6,3.3c0.9,0.5,1.6,1.1,2.7,0.4c4.9-4,10.9-4.7,16.9-5.4
		c3.6-0.4,7.3-1.1,10.7-2.4c5.1-2,8.5-5.8,11.1-10.7C99.9,84.3,99.7,82.1,100.8,80.5z"/>
	<path class="st14" d="M33.3,40.2c-3.1,1.5-6.2,0.5-9.1-0.7c-0.5-0.2-0.9-0.9-1.5-0.9c-1.3-1.8-1.6-4.2-3.3-5.6
		c-0.4-0.4-0.2-0.9,0.4-1.3c1.6-1.3,3.1-2.5,4.5-3.8c-0.2,1.3-1.1,2.4-2,3.3c-1.3,1.5-0.7,1.8,0.9,2.2c2.2,0.5,4.4,0.2,6.7,0.2
		c1.1,0,2.4,1.3,3.5-0.2c1.6,1.1,3.1,2.4,4.9,3.5c0.7,0.4,1.5,1.1,1.1,2c-0.4,0.9-1.1,1.1-2,1.3C35.8,40,34.5,39.4,33.3,40.2z"/>
	<path class="st12" d="M17.5,78.5c0.2-2.2,0.2-4.2,0.4-6.4c0.5-1.6,1.1-3.5,1.6-5.1c1.1-0.5,1.5,0.4,1.6,0.9
		c0.4,1.6,1.5,2.2,3.1,2.2c0.4,0,0,0,0.2,0c4.4,0.4,4.4,0.4,5.1,4.5c0.4,2.4,1.6,4.5,2.2,6.9c-0.4,3.5-1.1,4-4.4,3.5
		c-1.1-0.2-2.4-0.2-3.5,0c-3.1,0.4-4.2-0.4-5.1-3.3c-0.2-0.5-0.4-1.1-0.9-1.6C17.8,79.6,17.6,79,17.5,78.5z"/>
	<path class="st15" d="M28.9,75c-0.2-0.2-0.2-0.2-0.4-0.4c-0.4-0.9,0.4-2.5-0.5-2.9c-1.3-0.5-2.7-0.7-4.2-0.7
		c-2.2,0-3.6-0.5-3.6-3.1c0-0.5-0.5-0.7-1.1-0.7c2-4,3.8-8.2,4.5-12.5c1.5,0.2,1.3,1.3,1.3,2.2c0,1.1,0.4,2.2,1.6,1.8
		c3.6-0.7,7.3-0.2,10.9-0.4c-0.2,1.1-1.1,1.3-1.6,1.6c-4.4,2.9-6.5,6.9-6.7,12.2C29.6,73,29.8,74.1,28.9,75z"/>
	<path class="st16" d="M18,80.1c0.9,0,1.3,0.7,1.3,1.5c0.5,2.4,2,3.3,4.2,2.7c0.9-0.2,2-0.2,2.9-0.2c3.8,0.5,3.8,0.5,4.7-2.9
		c0.4,0,0.7,0.2,1.1,0.4c2.4,2.7,5.6,4.2,8.9,5.1c2.7,0.5,5.4,0.4,8.2-0.2c1.8-0.5,4-0.4,5.1-2.4c0.4-0.7,0.4-1.6,0.9-2.2
		c1.5-1.6,3.1-2.9,5.6-2.4c0.5,0.2,0.9,0.5,1.3,1.1c2.4,3.3,5.4,5.1,9.3,6.2c1.6,0.7,3.5-0.2,4.9,0.7c0.4,0.4,0,1.3,1.1,1.3
		c5.3,0.2,10.4,0.5,15.6-0.4c1.8-0.4,3.8-0.7,5.3-2.2c0.4-0.4,0.9-0.7,1.5-0.4c-2.7,6.4-7.6,10.2-14.3,12c-4.7,1.3-9.8,1.3-14.5,2.4
		c-3.8,0.7-7.4,1.8-10.4,4.7c-0.7,0.7-1.5,0.7-2.2,0c-3.8-3.5-8.7-4.2-13.6-4.9c-2.9-0.4-6-0.5-8.9-1.1c-7.3-1.3-12.5-5.3-15.8-11.8
		C19.3,85,18,82.7,18,80.1z"/>
	<path class="st17" d="M70.7,87.4c-4.2-1.1-7.4-3.6-9.8-7.3c-2-2.4-2-5.4-2-8.4c0.2-3.8,1.3-7.3,3.5-10.4c0.7-1.1,1.6-2.2,3.1-1.8
		c4.5-2.7,9.4-2.9,14.3-1.5c4.2,2,6.7,5.4,7.8,9.8c0.9,2.9,0.9,5.6,0,8.5c-0.2,0.2-0.2,0.5-0.4,0.7c-0.5,4.9-3.6,7.8-7.8,9.6
		c-0.9,0.4-1.8,0.7-2.7,1.3c-0.2,0-0.5,0-0.7-0.2C74.5,87.4,72.5,88.1,70.7,87.4z"/>
	<path class="st17" d="M40.5,87.4c-3.8-1.1-7.1-2.5-9.4-6c-1.1-2-1.8-4.2-2.2-6.5c-0.4-5.1,0.7-9.8,4.7-13.6
		c1.3-1.3,2.9-1.8,4.4-2.9c5.3-1.5,10.5-1.8,15.6,0.4c0,1.8,1.6,3.8-0.4,5.6c-1.6,0.2-3.1-1.1-4.7-1.1c-1.8-0.4-3.8-0.4-5.6,0
		c-3.6,0.9-5.6,3.3-6.4,6.9c-0.4,2-0.4,4,0.4,6c1.3,4.2,6,6.4,9.8,5.1c1.6-0.5,1.3-2,1.3-3.1c0-1.3-0.5-1.8-1.8-2
		c-1.5-0.2-3.3,0.4-4-1.6c-0.5-4,0.2-4.9,4.2-4.9c2,0,4.2,0,6.2,0c1.1,0,2.2,0.2,2.5,1.5c0.2,4.4,0.4,8.7-0.2,13.1
		c-0.2,1.5-1.3,1.8-2.5,2.2c-0.9,0.4-1.8,0.7-2.7,0.9C46.5,87.7,43.6,87.9,40.5,87.4z"/>
	<path class="st18" d="M54.5,71.2c-0.4-1.1-1.1-0.9-1.8-0.9c-2.5,0-4.9,0.2-7.4,0c-2.2-0.2-3.1,0.5-2.9,2.7c0,0.5,0,1.3,0,1.8
		c-1.3,1.3-3.1,1.3-4.7,1.3c-1.3,0-1.6-1.1-1.6-2c-0.2-1.3-0.2-2.5,0-3.8c0.9-4.2,3.5-6.4,7.4-7.6c1.6,0.2,3.5-0.2,5.1,0.2
		c1.5-0.2,2.9,0.5,4.2,1.3c1.1-0.4,1.1-0.4,1.1-1.1c0.2-0.7-0.4-1.5,0.4-2.2c2.4-0.7,4.7-0.7,7.1-0.5c0.5,0,1.3-0.4,1.8-0.7
		c0.9-0.4,1.6-0.9,2.5-0.2c-4,2.5-5.3,6.7-6,11.1c-0.5,3.3,0.4,6.4,1.3,9.4c-2.2,0-3.8,1.3-5.4,2.4c-0.7-0.7-0.4-1.6-0.5-2.5
		C54.7,76.8,55.2,74.1,54.5,71.2z"/>
	<path class="st19" d="M54,61c0,0.9,0,1.8-0.2,2.7c-0.2,0.9-0.5,1.3-1.3,0.4c1.8-1.6,0.4-3.6,0.9-5.4C54.3,59.4,53.8,60.3,54,61z"/>
	<path class="st20" d="M47.6,42.2c-1.1-0.5-1.5-1.8-2-2.7c-0.7-2.7-1.5-5.4-2-8.2c-0.2-0.9-0.7-1.8,0.7-2.2c1.1-0.2,1.8,0.4,2.2,1.5
		c0.4,1.6,0.7,3.5,1.1,5.1c0,0.4,0,1.1,0.7,0.9c0.2,0,0.5-0.5,0.7-0.9c0.5-1.6,1.1-3.5,1.5-5.1c0.2-1.1,0.7-1.8,2-1.6
		c1.1,0,1.6,0.7,1.8,1.8c0.4,1.3,0.5,2.5,0.9,3.8c0.2,0.7,0.2,1.6,0.9,1.6c1.1,0.2,0.7-0.9,0.9-1.5c0.4-1.3,0.5-2.7,0.9-4
		c0.5-1.8,1.5-2.2,3.1-0.9c-0.4,3.6-1.8,6.9-2.5,10.4c-0.2,0.7-0.4,1.5-1.3,1.8c-0.5,0-1.3,0-1.8,0c-1.1,0.2-1.3-0.7-1.6-1.5
		c-0.5-1.3-0.7-2.7-1.1-4.2c-1.5,1.1-1.1,2.9-1.6,4.2C50,41.6,49.1,42.5,47.6,42.2z"/>
	<path class="st21" d="M71,41.6c-1.1-0.4-0.5-2-1.8-2.4c-2-0.4-4-0.9-4.7,1.8c-0.2,0.5-0.7,0.5-1.5,0.5c-0.5-0.2-1.3,0-1.8-0.5
		c1.3-3.3,2.4-6.4,3.6-9.6c0.4-1.1,0.5-2.5,2.4-2.5c1.8-0.2,2,1.3,2.7,2.4c1.1,2.5,2.2,5.1,2.9,7.8l0,0C73.9,41.6,73.8,42,71,41.6z"
		/>
	<path class="st22" d="M76.1,41.6c-1.5-1.1-0.7-2.5-0.7-3.8c-0.2-0.9,0-1.8-0.2-2.7c0-1.5,0-3.1,0.2-4.5c0-0.7,0.2-1.3,0.9-1.6
		c2.2-0.9,6.7,0.5,8.2,2.5c0.7,4-0.2,5.1-3.8,5.8c-1.5,0.2-2.2,0.9-2,2.4C78.8,41.2,78.1,42.3,76.1,41.6z"/>
	<path class="st20" d="M33.3,40.2c0.2-0.7,0.4-1.6,1.5-1.1c0.4,0.2,0.7,0.4,1.1,0.4c1.1,0,2.5,0.5,2.9-0.9c0.4-1.5-1.1-1.8-2.2-2.2
		c-1.6-0.5-2.7-1.6-3.5-3.1c0.2-4,4.2-5.6,8.2-3.5c0.4,2.2,0.2,2.4-1.8,1.8c-1.5-0.4-2.5-0.2-2.9,1.5c1.5,1.6,4.2,1.8,5.1,4
		c0.5,2.7-0.5,4.5-3.1,4.7c-1.5,0.2-2.9,0.4-4.4-0.2C34,41.2,33.4,40.7,33.3,40.2z"/>
	<path class="st10" d="M76.1,41.6c1.8,0.2,2.2-0.7,2.2-2.4c0-0.9-0.2-2,1.3-2.2c4.4-0.7,4.7-1.1,4.9-5.6c0.2,0.2,0.4,0.4,0.5,0.5
		c0,4.5,0,4.5-4.4,5.6C79.4,38,79,38.5,79,39.8C79,42.2,78.5,42.3,76.1,41.6z"/>
	<path class="st23" d="M56.7,41.6c1.5-1.6,1.3-3.6,2-5.4c0.7-2.2,1.3-4.4,1.8-6.5c0.4,0.4,0.2,0.7,0.2,1.3c-0.7,3.1-1.5,6.2-2.2,9.4
		c-0.2,0.7-0.5,1.5-1.3,1.8C57.1,42,56.9,41.8,56.7,41.6z"/>
	<path class="st24" d="M34.5,41.6c0.9,0,1.8,0,2.7,0c3.3,0,4.5-1.3,4.5-4.7c0.2,0.2,0.4,0.4,0.5,0.5C42.3,41.8,38.9,43.4,34.5,41.6z
		"/>
	<path class="st10" d="M72.9,38.9c-1.3-2.5-2.2-5.1-2.9-7.8c1.6,0.7,0.9,2.7,2,3.6C72.1,36.2,73.2,37.4,72.9,38.9z"/>
	<path class="st25" d="M36.7,32.9c-0.4-1.6,0.5-2.5,2.9-1.8c1.8,0.5,2,0,1.8-1.5c0.7,2,0.4,2.7-1.5,2.2
		C38.5,31.4,37.6,31.8,36.7,32.9z"/>
	<path class="st26" d="M52.5,35.1c0.9,2.2,0.5,4.7,2.4,6.5c-2.5,2.5-5.8,2.7-7.4,0.5c0.7-0.7,2.7-0.4,2.4-2.4
		c0.9-0.7,0.7-1.8,1.1-2.7C51.2,36.3,51.2,35.2,52.5,35.1z"/>
	<path class="st27" d="M63.2,41.6c0.5-0.2,1.1-0.5,1.5-1.1c1.1-2,2.4-2.4,4.7-1.3c-1.8,0-4-0.4-4.5,2.4
		C64.5,42.2,63.8,42.3,63.2,41.6z"/>
	<path class="st10" d="M71,41.6c2.4,0.2,2.2-1.3,1.8-2.7c1.1,0.7,1.5,1.8,0.9,2.7C73,42.5,71.9,42.3,71,41.6z"/>
	<path class="st28" d="M76.9,87.9c0.2,0,0.2,0,0.2,0c0.9-1.1,2.4-0.7,3.5-1.5c2.2-1.3,4-2.9,5.4-5.1c0.4-0.5,0.4-1.5,1.3-1.3
		c0.9,0.9,2.2,0.4,3.3,0.4c2.4,0.2,4.7-0.4,7.1,0.4c0.9,0.4,1.5-0.5,2.2-1.1c1.3-1.1,0.9,0.2,0.9,0.7c0,2-0.4,3.8-1.5,5.4
		c-3.8,4-8.7,3.6-13.6,3.6c-3.1,0-6.2,0.2-9.3,0c-2-0.2-0.2-1.1-0.2-1.6C76.3,87.7,76.7,87.7,76.9,87.9z"/>
	<path class="st29" d="M87.4,80.1c-2.4,4-5.4,6.9-10.2,7.8c0.2-0.7,0.7-0.9,1.3-1.1c4.7-1.6,7.6-4.9,9.1-9.6
		C88.3,78.1,87.4,79,87.4,80.1z"/>
	<path class="st30" d="M87.7,76.5c0.5-2.9,0.5-5.6,0-8.5c0.2,0.2,0.4,0.4,0.5,0.5C88.7,71.2,89.2,73.8,87.7,76.5z"/>
	<path class="st31" d="M54.5,71.2c1.3-0.4,0.7,0.5,0.7,1.1c0,3.3,0,6.7,0,10c0,0.7,0,1.6-0.5,2.4c-0.2,0.2-0.4,0.2-0.4,0
		C54.5,80.1,54.5,75.8,54.5,71.2z"/>
	<path class="st32" d="M40.5,87.4c3.1,0,6.2,0.2,9.3-0.4c0.2,0,0.2,0.2,0.2,0.2c0,0.2-0.2,0.2-0.2,0.2
		C46.7,87.9,43.6,88.5,40.5,87.4z"/>
	<path class="st33" d="M49.8,87.4c0-0.2,0-0.2,0-0.4c1.6-0.7,3.5-0.9,4.7-2.4c0.2,0,0.4,0,0.4,0C54,87.2,51.6,86.7,49.8,87.4z"/>
	<path class="st32" d="M76.9,87.9c-0.2,0-0.4,0-0.5,0.2c-1.8-0.4-3.8,0.5-5.6-0.5C72.7,87.6,74.9,86.8,76.9,87.9z"/>
	<path class="st12" d="M72.5,63c6.4-0.2,9.6,3.5,9.1,10.2c-0.2,1.8-0.4,3.6-1.5,5.3c-1.6,2.7-4,3.8-7.1,3.6c-3.1-0.2-4.9-2.2-6-4.9
		c-0.2-0.5-0.7-1.3-0.5-2c-0.4-1.6-0.4-3.3,0-4.9l0,0c0.5-1.3,0.5-2.5,1.3-3.6C68.7,64.7,70.5,63.6,72.5,63z"/>
	<path class="st34" d="M72.5,63c-1.6,1.1-3.5,2-4.7,3.8c-0.2-0.2-0.2-0.4-0.2-0.7C68.9,64.3,70.3,62.9,72.5,63z"/>
	<path class="st35" d="M67.8,66.1c0,0.2,0,0.5,0.2,0.7c-0.5,1.3-1.1,2.4-1.5,3.6C66.3,68.7,66.9,67.4,67.8,66.1z"/>
	<path class="st35" d="M66.5,70.3c0,1.6,0,3.3,0,4.9C65.8,73.6,65.8,71.9,66.5,70.3z"/>
	<path class="st36" d="M36.3,69.8c0,0.4,0,0.7,0,1.1c0,5.8-0.7,5.1,5.1,4c0.4,0,0.5,0,0.9,0c0.9,0.9,2.2,0.5,3.3,0.5
		c2-0.2,3.1,0.4,2.7,2.5c0,0.5,0,1.1,0,1.6c0.2,1.8-0.7,2.4-2.4,2.5c-6.7,0.7-10.5-2.7-10.7-9.8c0-0.7-0.4-1.6,0.2-2.5
		C36,69.6,36.2,69.6,36.3,69.8z"/>
	<path class="st37" d="M36.3,69.8c-0.2,0-0.4,0-0.7,0c0.9-3.5,2.9-6.2,6.7-6.9c0.2-0.2,0.4-0.2,0.5,0C40,64.5,37.4,66.3,36.3,69.8z"
		/>
	<path class="st38" d="M42.9,62.9c-0.2,0-0.4,0-0.5,0c2-0.5,4.2-0.7,6.2,0C46.7,62.9,44.9,62.9,42.9,62.9z"/>
	<path class="st39" d="M52.5,35.1c-0.9,0.7-1.1,1.6-1.3,2.5c-0.2,0.7-0.2,1.8-1.3,2.2c0.4-1.6,0.9-3.1,1.3-4.7
		c0.2-0.4,0.2-0.9,0.7-0.9C52.3,34.3,52.3,34.7,52.5,35.1z"/>
	<path class="st40" d="M68.1,34.2c0.5,1.3,1.5,2.7-1.3,2.4c-1.3-0.9-0.2-1.6,0.2-2.5C67.4,33.4,68,33.6,68.1,34.2z"/>
	<path class="st41" d="M68.1,34.2c-1.5,0.2-1.6,1.3-1.3,2.4c-1.3,0-1.1-0.7-0.7-1.5c0.4-0.7,0.2-2,1.1-2.2
		C68.1,32.7,68.1,33.4,68.1,34.2z"/>
	<path class="st42" d="M79.4,31.1c1.3,0.4,2.4,0.7,2.2,2.2c0,1.3-0.9,2-2.2,1.8c-1.3,0-1.3-1.1-1.3-2C78.3,32,78.3,31.1,79.4,31.1z"
		/>
</g>
<path class="st43" d="M64,126.5c-34.5,0-62.5-28-62.5-62.5S29.5,1.5,64,1.5s62.5,28,62.5,62.5S98.5,126.5,64,126.5z M64,2.5
	C30.1,2.5,2.5,30.1,2.5,64s27.6,61.5,61.5,61.5s61.5-27.6,61.5-61.5S97.9,2.5,64,2.5z"/>
<path id="Fill-1-Copy-5_1_" class="st44" d="M87.6,109.9C77.2,107.2,70.8,96.5,73.3,86C76,75.4,86.7,69,97.4,71.5
	c10.4,2.7,16.8,13.4,14.3,23.9C109,106,98.3,112.4,87.6,109.9z"/>
<path id="Fill-1-Copy-5" class="st16" d="M88.2,107.6c-9.1-2.4-14.8-11.8-12.6-21.1c2.4-9.3,11.8-15,21.2-12.7
	c9.1,2.4,14.8,11.8,12.6,21.1C107,104.2,97.6,109.8,88.2,107.6z"/>
<g>
	<g>
		<path class="st45" d="M89.2,84.8H84l1.7-4.6H106l-1.7,4.6H99l-7.2,19.6H82L89.2,84.8z"/>
	</g>
</g>
<g>
	<g>
		<path class="st44" d="M88.9,84.4h-5.2l1.7-4.6h20.2l-1.7,4.6h-5.2L91.5,104h-9.8L88.9,84.4z"/>
	</g>
</g>
</svg>
